<svg version="1.1" viewBox="0.0 0.0 960.0 960.0" fill="none" stroke="none" stroke-linecap="square" stroke-miterlimit="10" xmlns:xlink="http://www.w3.org/1999/xlink" xmlns="http://www.w3.org/2000/svg"><clipPath id="p.0"><path d="m0 0l960.0 0l0 960.0l-960.0 0l0 -960.0z" clip-rule="nonzero"/></clipPath><g clip-path="url(#p.0)"><path fill="#000000" fill-opacity="0.0" d="m0 0l960.0 0l0 960.0l-960.0 0z" fill-rule="evenodd"/><path fill="#000000" fill-opacity="0.0" d="m465.47375 271.07742c59.566956 -170.11285 291.87793 0 0 218.71655c-291.87796 -218.71655 -59.566925 -388.8294 0 -218.71655z" fill-rule="evenodd"/><path stroke="#000000" stroke-width="24.0" stroke-linejoin="round" stroke-linecap="butt" d="m465.47375 271.07742c59.566956 -170.11285 291.87793 0 0 218.71655c-291.87796 -218.71655 -59.566925 -388.8294 0 -218.71655z" fill-rule="evenodd"/><path fill="#000000" fill-opacity="0.0" d="m276.89462 598.52704c-117.547226 136.64697 145.939 252.74872 189.4252 -109.37009c-335.36417 -143.3786 -366.53937 142.85434 -189.4252 109.37009z" fill-rule="evenodd"/><path stroke="#000000" stroke-width="24.0" stroke-linejoin="round" stroke-linecap="butt" d="m276.89462 598.52704c-117.547226 136.64697 145.939 252.74872 189.4252 -109.37009c-335.36417 -143.3786 -366.53937 142.85434 -189.4252 109.37009z" fill-rule="evenodd"/><path fill="#000000" fill-opacity="0.0" d="m656.0259 598.52655c177.1076 33.484253 145.90686 -252.74869 -189.4252 -109.37009c43.51837 362.1188 306.97903 246.01706 189.4252 109.37009z" fill-rule="evenodd"/><path stroke="#000000" stroke-width="24.0" stroke-linejoin="round" stroke-linecap="butt" d="m656.0259 598.52655c177.1076 33.484253 145.90686 -252.74869 -189.4252 -109.37009c43.51837 362.1188 306.97903 246.01706 189.4252 109.37009z" fill-rule="evenodd"/><path fill="#000000" fill-opacity="0.0" d="m656.0174 382.04144c177.09576 -33.45932 145.93896 252.78082 -189.40158 109.346466c43.462585 -362.12732 306.93045 -245.98164 189.40158 -109.346466z" fill-rule="evenodd"/><path stroke="#000000" stroke-width="24.0" stroke-linejoin="round" stroke-linecap="butt" d="m656.0174 382.04144c177.09576 -33.45932 145.93896 252.78082 -189.40158 109.346466c43.462585 -362.12732 306.93045 -245.98164 189.40158 -109.346466z" fill-rule="evenodd"/><path fill="#000000" fill-opacity="0.0" d="m276.89313 382.03345c-177.1076 -33.484253 -145.90683 252.74872 189.4252 109.37009c-43.51837 -362.11877 -306.979 -246.01706 -189.4252 -109.37009z" fill-rule="evenodd"/><path stroke="#000000" stroke-width="24.0" stroke-linejoin="round" stroke-linecap="butt" d="m276.89313 382.03345c-177.1076 -33.484253 -145.90683 252.74872 189.4252 109.37009c-43.51837 -362.11877 -306.979 -246.01706 -189.4252 -109.37009z" fill-rule="evenodd"/><path fill="#000000" fill-opacity="0.0" d="m465.47385 708.5508c59.560394 170.12463 291.8458 -0.032165527 0 -218.74017c-291.8458 218.77228 -59.560364 388.87793 0 218.74017z" fill-rule="evenodd"/><path stroke="#000000" stroke-width="24.0" stroke-linejoin="round" stroke-linecap="butt" d="m465.47385 708.5508c59.560394 170.12463 291.8458 -0.032165527 0 -218.74017c-291.8458 218.77228 -59.560364 388.87793 0 218.74017z" fill-rule="evenodd"/></g></svg>