<?xml version="1.0" encoding="UTF-8" standalone="no"?>
<!-- Created with Inkscape (http://www.inkscape.org/) -->

<svg
   width="300mm"
   height="300mm"
   viewBox="0 0 300 300"
   version="1.1"
   id="svg1"
   xml:space="preserve"
   inkscape:version="1.4.2 (ebf0e940, 2025-05-08)"
   sodipodi:docname="true-heartflower-medium-colored.svg"
   inkscape:export-filename="true-heartflower-medium-colored_2048.png"
   inkscape:export-xdpi="191.08"
   inkscape:export-ydpi="191.08"
   xmlns:inkscape="http://www.inkscape.org/namespaces/inkscape"
   xmlns:sodipodi="http://sodipodi.sourceforge.net/DTD/sodipodi-0.dtd"
   xmlns="http://www.w3.org/2000/svg"
   xmlns:svg="http://www.w3.org/2000/svg"><sodipodi:namedview
     id="namedview1"
     pagecolor="#505050"
     bordercolor="#ffffff"
     borderopacity="1"
     inkscape:showpageshadow="0"
     inkscape:pageopacity="0"
     inkscape:pagecheckerboard="1"
     inkscape:deskcolor="#505050"
     inkscape:document-units="mm"
     inkscape:zoom="0.45833941"
     inkscape:cx="602.17383"
     inkscape:cy="627.26441"
     inkscape:window-width="1440"
     inkscape:window-height="810"
     inkscape:window-x="0"
     inkscape:window-y="34"
     inkscape:window-maximized="0"
     inkscape:current-layer="layer2" /><defs
     id="defs1" /><g
     inkscape:groupmode="layer"
     id="layer2"
     inkscape:label="color"><path
       style="fill:#d1495b;fill-rule:evenodd;stroke:#d1495b;stroke-width:1.16354;stroke-linecap:round;stroke-opacity:0"
       d="m 686.55201,176.43844 c -29.90458,0.0277 -58.45849,14.69728 -78.27327,36.68707 -15.47112,16.7997 -27.29627,36.97816 -35.10369,58.34512 -0.0255,6.64615 3.8427,12.8098 5.04685,19.36224 8.95774,34.17252 13.06963,69.28736 12.69728,104.57377 0.48396,27.78802 -1.21323,55.7036 -4.58485,83.06177 -1.44219,14.54429 -4.2665,29.17059 -5.58134,43.7714 0.83197,5.00137 7.96255,5.40426 10.02327,1.05824 34.18498,-46.67667 72.09102,-91.58101 117.20523,-127.87036 18.54665,-15.06729 39.06541,-28.43852 60.35309,-39.55345 6.29079,-4.68647 7.25584,-13.34859 10.32331,-20.0993 10.46886,-30.75567 13.65859,-65.66587 1.40908,-96.39643 -13.22482,-32.82388 -44.48941,-57.90979 -79.8269,-62.12384 -4.53558,-0.59282 -9.11433,-0.86036 -13.68806,-0.81623 z"
       id="path9"
       transform="scale(0.26458333)" /><path
       style="fill:#d1495b;fill-rule:evenodd;stroke:#d1495b;stroke-width:1.16354;stroke-linecap:round;stroke-opacity:0"
       d="m 564.42834,304.27875 c -4.30911,4.21432 -3.35068,11.10898 -5.06837,16.56773 -11.58557,64.1124 -7.43736,129.99156 2.5385,194.01718 0.70147,5.6269 9.39595,5.55941 10.05484,-0.0707 9.82042,-62.85519 13.72128,-127.4264 3.21532,-190.45869 -1.58297,-6.45848 -1.63854,-13.5683 -4.91392,-19.42272 -2.03722,-1.29452 -3.55869,-1.45993 -5.82637,-0.63284 z"
       id="path10"
       transform="scale(0.26458333)" /><path
       style="fill:#d1495b;fill-rule:evenodd;stroke:#d1495b;stroke-width:1.16354;stroke-linecap:round;stroke-opacity:0"
       d="m 443.82289,176.67595 c -34.2016,-0.11583 -66.82307,20.3705 -83.62997,49.83209 -14.56785,23.30844 -15.98056,52.14236 -12.64756,78.72011 2.43721,16.66131 8.02515,32.79146 14.70888,48.12977 4.60059,4.78969 11.6853,6.47238 17.21558,10.16906 50.73431,29.04433 92.51639,71.20821 129.61557,115.85988 12.2772,14.44171 23.00275,30.21874 35.27837,44.7635 4.14223,3.77675 10.10247,-1.3479 8.30305,-6.20532 -5.17882,-35.47689 -9.49518,-70.84587 -9.67175,-106.64943 -0.7263,-43.89819 2.24054,-88.06239 15.53448,-130.32486 2.09818,-4.98754 2.99145,-10.46217 -0.007,-15.29994 C 544.9978,233.93627 523.82437,203.41 492.2692,187.56806 477.29124,179.96583 460.61761,176.19135 443.82289,176.67595 Z"
       id="path11"
       transform="scale(0.26458333)" /><path
       style="fill:#d1495b;fill-rule:evenodd;stroke:#d1495b;stroke-width:0.622246;stroke-linecap:round;stroke-opacity:0"
       d="m 748.16991,379.54134 c -5.66275,2.58209 -10.50349,6.72184 -15.72501,10.08614 -35.42662,24.71978 -66.2021,55.50949 -94.23842,88.22174 -13.41287,15.79207 -26.22085,32.11651 -38.30619,48.9408 -2.45074,3.34253 0.46513,8.71728 4.69109,8.04158 3.90977,-0.86914 6.7438,-4.24745 10.0693,-6.33327 42.1671,-31.53223 82.11691,-66.62856 115.20152,-107.75862 8.61435,-10.89144 16.93739,-22.0833 24.02174,-34.03816 1.84213,-3.69171 -1.66854,-8.1595 -5.71403,-7.16021 z"
       id="path12"
       transform="scale(0.26458333)" /><path
       style="fill:#d1495b;fill-rule:evenodd;stroke:#d1495b;stroke-width:0.622246;stroke-linecap:round;stroke-opacity:0"
       d="m 383.36623,379.56626 c -3.72879,0.91404 -4.97124,5.69039 -2.66006,8.57827 17.47023,27.54894 38.78038,52.49649 62.08045,75.27015 26.09554,25.93861 54.6205,49.36176 84.46323,70.84587 3.54381,2.46666 8.80401,-1.11041 7.68338,-5.32972 -1.82592,-4.56141 -5.55758,-8.10981 -8.27115,-12.16697 -28.28743,-37.85062 -59.85416,-73.42997 -95.6586,-104.34603 -13.90995,-11.76231 -28.51116,-22.77524 -44.01253,-32.35477 -1.11907,-0.67416 -2.37931,-0.5407 -3.62472,-0.4968 z"
       id="path13"
       transform="scale(0.26458333)" /></g><g
     inkscape:label="Layer 1"
     inkscape:groupmode="layer"
     id="layer1"><g
       id="g19"
       transform="matrix(1.1811024,0,0,1.0285794,-27.165364,-11.4925)"
       style="stroke-width:4.53635796;stroke-dasharray:none"><g
         style="fill:none;stroke:none;stroke-linecap:square;stroke-miterlimit:10;stroke-width:17.14529016;stroke-dasharray:none"
         id="g1"
         transform="matrix(0.26458333,0,0,0.26458333,86.500001,42.770157)"><g
           clip-path="url(#p.0)"
           id="g4"
           style="stroke-width:17.14529016;stroke-dasharray:none"><path
             fill="#000000"
             fill-opacity="0"
             d="M 0,0 H 480 V 480 H 0 Z"
             fill-rule="evenodd"
             id="path2"
             style="stroke-width:17.14529016;stroke-dasharray:none" /><path
             fill="#000000"
             fill-opacity="0"
             d="m 240.00003,140.38583 c 79.42258,-226.81104 389.17062,0 0,291.61417 -389.1706,-291.61417 -79.42258,-518.4252 0,-291.61417 z"
             fill-rule="evenodd"
             id="path3"
             style="stroke-width:17.14529016;stroke-dasharray:none" /><path
             stroke="#000000"
             stroke-width="12"
             stroke-linejoin="round"
             stroke-linecap="butt"
             d="m 240.00003,140.38583 c 79.42258,-226.81104 389.17062,0 0,291.61417 -389.1706,-291.61417 -79.42258,-518.4252 0,-291.61417 z"
             fill-rule="evenodd"
             id="path4"
             style="stroke-width:17.14529016;stroke-dasharray:none" /></g></g><g
         style="fill:none;stroke:none;stroke-linecap:square;stroke-miterlimit:10;stroke-width:17.14529016;stroke-dasharray:none"
         id="g7"
         transform="matrix(-0.26458333,0,0,-0.26458333,213.5,271.2406)"><g
           clip-path="url(#p.0)"
           id="g6"
           style="stroke-width:17.14529016;stroke-dasharray:none"><path
             fill="#000000"
             fill-opacity="0"
             d="M 0,0 H 480 V 480 H 0 Z"
             fill-rule="evenodd"
             id="path1"
             style="stroke-width:17.14529016;stroke-dasharray:none" /><path
             fill="#000000"
             fill-opacity="0"
             d="m 240.00003,140.38583 c 79.42258,-226.81104 389.17062,0 0,291.61417 -389.1706,-291.61417 -79.42258,-518.4252 0,-291.61417 z"
             fill-rule="evenodd"
             id="path5"
             style="stroke-width:17.14529016;stroke-dasharray:none" /><path
             stroke="#000000"
             stroke-width="12"
             stroke-linejoin="round"
             stroke-linecap="butt"
             d="m 240.00003,140.38583 c 79.42258,-226.81104 389.17062,0 0,291.61417 -389.1706,-291.61417 -79.42258,-518.4252 0,-291.61417 z"
             fill-rule="evenodd"
             id="path6"
             style="stroke-width:17.14529016;stroke-dasharray:none" /></g></g></g><g
       id="g61"
       transform="matrix(0.83516552,0.83516552,-0.72731547,0.72731547,138.91761,-89.467271)"
       style="stroke-width:4.53635795;stroke-dasharray:none"><g
         style="fill:none;stroke:none;stroke-linecap:square;stroke-miterlimit:10;stroke-width:17.1452901;stroke-dasharray:none"
         id="g57"
         transform="matrix(0.26458333,0,0,0.26458333,86.500001,42.770157)"><g
           clip-path="url(#p.0)"
           id="g56"
           style="stroke-width:17.1452901;stroke-dasharray:none"><path
             fill="#000000"
             fill-opacity="0"
             d="M 0,0 H 480 V 480 H 0 Z"
             fill-rule="evenodd"
             id="path54"
             style="stroke-width:17.1452901;stroke-dasharray:none" /><path
             fill="#000000"
             fill-opacity="0"
             d="m 240.00003,140.38583 c 79.42258,-226.81104 389.17062,0 0,291.61417 -389.1706,-291.61417 -79.42258,-518.4252 0,-291.61417 z"
             fill-rule="evenodd"
             id="path55"
             style="stroke-width:17.1452901;stroke-dasharray:none" /><path
             stroke="#000000"
             stroke-width="12"
             stroke-linejoin="round"
             stroke-linecap="butt"
             d="m 240.00003,140.38583 c 79.42258,-226.81104 389.17062,0 0,291.61417 -389.1706,-291.61417 -79.42258,-518.4252 0,-291.61417 z"
             fill-rule="evenodd"
             id="path56"
             style="stroke-width:17.1452901;stroke-dasharray:none" /></g></g><g
         style="fill:none;stroke:none;stroke-linecap:square;stroke-miterlimit:10;stroke-width:17.1452901;stroke-dasharray:none"
         id="g60"
         transform="matrix(-0.26458333,0,0,-0.26458333,213.5,271.2406)"><g
           clip-path="url(#p.0)"
           id="g59"
           style="stroke-width:17.1452901;stroke-dasharray:none"><path
             fill="#000000"
             fill-opacity="0"
             d="M 0,0 H 480 V 480 H 0 Z"
             fill-rule="evenodd"
             id="path57"
             style="stroke-width:17.1452901;stroke-dasharray:none" /><path
             fill="#000000"
             fill-opacity="0"
             d="m 240.00003,140.38583 c 79.42258,-226.81104 389.17062,0 0,291.61417 -389.1706,-291.61417 -79.42258,-518.4252 0,-291.61417 z"
             fill-rule="evenodd"
             id="path58"
             style="stroke-width:17.1452901;stroke-dasharray:none" /><path
             stroke="#000000"
             stroke-width="12"
             stroke-linejoin="round"
             stroke-linecap="butt"
             d="m 240.00003,140.38583 c 79.42258,-226.81104 389.17062,0 0,291.61417 -389.1706,-291.61417 -79.42258,-518.4252 0,-291.61417 z"
             fill-rule="evenodd"
             id="path59"
             style="stroke-width:17.1452901;stroke-dasharray:none" /></g></g></g><g
       id="g68"
       transform="matrix(0,1.1811024,-1.0285794,0,311.4925,-27.165363)"
       style="stroke-width:4.53635796;stroke-dasharray:none"><g
         style="fill:none;stroke:none;stroke-linecap:square;stroke-miterlimit:10;stroke-width:17.14529016;stroke-dasharray:none"
         id="g64"
         transform="matrix(0.26458333,0,0,0.26458333,86.500001,42.770157)"><g
           clip-path="url(#p.0)"
           id="g63"
           style="stroke-width:17.14529016;stroke-dasharray:none"><path
             fill="#000000"
             fill-opacity="0"
             d="M 0,0 H 480 V 480 H 0 Z"
             fill-rule="evenodd"
             id="path61"
             style="stroke-width:17.14529016;stroke-dasharray:none" /><path
             fill="#000000"
             fill-opacity="0"
             d="m 240.00003,140.38583 c 79.42258,-226.81104 389.17062,0 0,291.61417 -389.1706,-291.61417 -79.42258,-518.4252 0,-291.61417 z"
             fill-rule="evenodd"
             id="path62"
             style="stroke-width:17.14529016;stroke-dasharray:none" /><path
             stroke="#000000"
             stroke-width="12"
             stroke-linejoin="round"
             stroke-linecap="butt"
             d="m 240.00003,140.38583 c 79.42258,-226.81104 389.17062,0 0,291.61417 -389.1706,-291.61417 -79.42258,-518.4252 0,-291.61417 z"
             fill-rule="evenodd"
             id="path63"
             style="stroke-width:17.14529016;stroke-dasharray:none" /></g></g><g
         style="fill:none;stroke:none;stroke-linecap:square;stroke-miterlimit:10;stroke-width:17.14529016;stroke-dasharray:none"
         id="g67"
         transform="matrix(-0.26458333,0,0,-0.26458333,213.5,271.2406)"><g
           clip-path="url(#p.0)"
           id="g66"
           style="stroke-width:17.14529016;stroke-dasharray:none"><path
             fill="#000000"
             fill-opacity="0"
             d="M 0,0 H 480 V 480 H 0 Z"
             fill-rule="evenodd"
             id="path64"
             style="stroke-width:17.14529016;stroke-dasharray:none" /><path
             fill="#000000"
             fill-opacity="0"
             d="m 240.00003,140.38583 c 79.42258,-226.81104 389.17062,0 0,291.61417 -389.1706,-291.61417 -79.42258,-518.4252 0,-291.61417 z"
             fill-rule="evenodd"
             id="path65"
             style="stroke-width:17.14529016;stroke-dasharray:none" /><path
             stroke="#000000"
             stroke-width="12"
             stroke-linejoin="round"
             stroke-linecap="butt"
             d="m 240.00003,140.38583 c 79.42258,-226.81104 389.17062,0 0,291.61417 -389.1706,-291.61417 -79.42258,-518.4252 0,-291.61417 z"
             fill-rule="evenodd"
             id="path66"
             style="stroke-width:17.14529016;stroke-dasharray:none" /></g></g></g><g
       id="g75"
       transform="matrix(-0.83516552,0.83516552,-0.72731547,-0.72731547,389.46727,138.91761)"
       style="stroke-width:4.53635795;stroke-dasharray:none"><g
         style="fill:none;stroke:none;stroke-linecap:square;stroke-miterlimit:10;stroke-width:17.1452901;stroke-dasharray:none"
         id="g71"
         transform="matrix(0.26458333,0,0,0.26458333,86.500001,42.770157)"><g
           clip-path="url(#p.0)"
           id="g70"
           style="stroke-width:17.1452901;stroke-dasharray:none"><path
             fill="#000000"
             fill-opacity="0"
             d="M 0,0 H 480 V 480 H 0 Z"
             fill-rule="evenodd"
             id="path68"
             style="stroke-width:17.1452901;stroke-dasharray:none" /><path
             fill="#000000"
             fill-opacity="0"
             d="m 240.00003,140.38583 c 79.42258,-226.81104 389.17062,0 0,291.61417 -389.1706,-291.61417 -79.42258,-518.4252 0,-291.61417 z"
             fill-rule="evenodd"
             id="path69"
             style="stroke-width:17.1452901;stroke-dasharray:none" /><path
             stroke="#000000"
             stroke-width="12"
             stroke-linejoin="round"
             stroke-linecap="butt"
             d="m 240.00003,140.38583 c 79.42258,-226.81104 389.17062,0 0,291.61417 -389.1706,-291.61417 -79.42258,-518.4252 0,-291.61417 z"
             fill-rule="evenodd"
             id="path70"
             style="stroke-width:17.1452901;stroke-dasharray:none" /></g></g><g
         style="fill:none;stroke:none;stroke-linecap:square;stroke-miterlimit:10;stroke-width:17.1452901;stroke-dasharray:none"
         id="g74"
         transform="matrix(-0.26458333,0,0,-0.26458333,213.5,271.2406)"><g
           clip-path="url(#p.0)"
           id="g73"
           style="stroke-width:17.1452901;stroke-dasharray:none"><path
             fill="#000000"
             fill-opacity="0"
             d="M 0,0 H 480 V 480 H 0 Z"
             fill-rule="evenodd"
             id="path71"
             style="stroke-width:17.1452901;stroke-dasharray:none" /><path
             fill="#000000"
             fill-opacity="0"
             d="m 240.00003,140.38583 c 79.42258,-226.81104 389.17062,0 0,291.61417 -389.1706,-291.61417 -79.42258,-518.4252 0,-291.61417 z"
             fill-rule="evenodd"
             id="path72"
             style="stroke-width:17.1452901;stroke-dasharray:none" /><path
             stroke="#000000"
             stroke-width="12"
             stroke-linejoin="round"
             stroke-linecap="butt"
             d="m 240.00003,140.38583 c 79.42258,-226.81104 389.17062,0 0,291.61417 -389.1706,-291.61417 -79.42258,-518.4252 0,-291.61417 z"
             fill-rule="evenodd"
             id="path73"
             style="stroke-width:17.1452901;stroke-dasharray:none" /></g></g></g></g></svg>
