<?xml version="1.0" encoding="UTF-8" standalone="no"?>
<!-- Created with Inkscape (http://www.inkscape.org/) -->

<svg
   width="300mm"
   height="300mm"
   viewBox="0 0 300 300"
   version="1.1"
   id="svg1"
   xml:space="preserve"
   inkscape:version="1.4.2 (ebf0e940, 2025-05-08)"
   sodipodi:docname="true-heartflower-thin.svg"
   inkscape:export-filename="true-heartflower-thin.png"
   inkscape:export-xdpi="96"
   inkscape:export-ydpi="96"
   xmlns:inkscape="http://www.inkscape.org/namespaces/inkscape"
   xmlns:sodipodi="http://sodipodi.sourceforge.net/DTD/sodipodi-0.dtd"
   xmlns="http://www.w3.org/2000/svg"
   xmlns:svg="http://www.w3.org/2000/svg"><sodipodi:namedview
     id="namedview1"
     pagecolor="#505050"
     bordercolor="#ffffff"
     borderopacity="1"
     inkscape:showpageshadow="0"
     inkscape:pageopacity="0"
     inkscape:pagecheckerboard="1"
     inkscape:deskcolor="#505050"
     inkscape:document-units="mm"
     inkscape:zoom="0.47809843"
     inkscape:cx="480.02668"
     inkscape:cy="563.69146"
     inkscape:window-width="1440"
     inkscape:window-height="810"
     inkscape:window-x="0"
     inkscape:window-y="38"
     inkscape:window-maximized="0"
     inkscape:current-layer="layer1" /><defs
     id="defs1" /><g
     inkscape:label="Layer 1"
     inkscape:groupmode="layer"
     id="layer1"><g
       id="g19"
       transform="matrix(1.1811024,0,0,1.0285794,-27.165364,-11.4925)"
       style="stroke-width:4.53635796;stroke-dasharray:none"><g
         style="fill:none;stroke:none;stroke-linecap:square;stroke-miterlimit:10;stroke-width:17.14529016;stroke-dasharray:none"
         id="g1"
         transform="matrix(0.26458333,0,0,0.26458333,86.500001,42.770157)"><g
           clip-path="url(#p.0)"
           id="g4"
           style="stroke-width:17.14529016;stroke-dasharray:none"><path
             fill="#000000"
             fill-opacity="0"
             d="M 0,0 H 480 V 480 H 0 Z"
             fill-rule="evenodd"
             id="path2"
             style="stroke-width:17.14529016;stroke-dasharray:none" /><path
             fill="#000000"
             fill-opacity="0"
             d="m 240.00003,140.38583 c 79.42258,-226.81104 389.17062,0 0,291.61417 -389.1706,-291.61417 -79.42258,-518.4252 0,-291.61417 z"
             fill-rule="evenodd"
             id="path3"
             style="stroke-width:17.14529016;stroke-dasharray:none" /><path
             stroke="#000000"
             stroke-width="12"
             stroke-linejoin="round"
             stroke-linecap="butt"
             d="m 240.00003,140.38583 c 79.42258,-226.81104 389.17062,0 0,291.61417 -389.1706,-291.61417 -79.42258,-518.4252 0,-291.61417 z"
             fill-rule="evenodd"
             id="path4"
             style="stroke-width:17.14529016;stroke-dasharray:none" /></g></g><g
         style="fill:none;stroke:none;stroke-linecap:square;stroke-miterlimit:10;stroke-width:17.14529016;stroke-dasharray:none"
         id="g7"
         transform="matrix(-0.26458333,0,0,-0.26458333,213.5,271.2406)"><g
           clip-path="url(#p.0)"
           id="g6"
           style="stroke-width:17.14529016;stroke-dasharray:none"><path
             fill="#000000"
             fill-opacity="0"
             d="M 0,0 H 480 V 480 H 0 Z"
             fill-rule="evenodd"
             id="path1"
             style="stroke-width:17.14529016;stroke-dasharray:none" /><path
             fill="#000000"
             fill-opacity="0"
             d="m 240.00003,140.38583 c 79.42258,-226.81104 389.17062,0 0,291.61417 -389.1706,-291.61417 -79.42258,-518.4252 0,-291.61417 z"
             fill-rule="evenodd"
             id="path5"
             style="stroke-width:17.14529016;stroke-dasharray:none" /><path
             stroke="#000000"
             stroke-width="12"
             stroke-linejoin="round"
             stroke-linecap="butt"
             d="m 240.00003,140.38583 c 79.42258,-226.81104 389.17062,0 0,291.61417 -389.1706,-291.61417 -79.42258,-518.4252 0,-291.61417 z"
             fill-rule="evenodd"
             id="path6"
             style="stroke-width:17.14529016;stroke-dasharray:none" /></g></g></g><g
       id="g61"
       transform="matrix(0.83516552,0.83516552,-0.72731547,0.72731547,138.91761,-89.467271)"
       style="stroke-width:4.53635795;stroke-dasharray:none"><g
         style="fill:none;stroke:none;stroke-linecap:square;stroke-miterlimit:10;stroke-width:17.1452901;stroke-dasharray:none"
         id="g57"
         transform="matrix(0.26458333,0,0,0.26458333,86.500001,42.770157)"><g
           clip-path="url(#p.0)"
           id="g56"
           style="stroke-width:17.1452901;stroke-dasharray:none"><path
             fill="#000000"
             fill-opacity="0"
             d="M 0,0 H 480 V 480 H 0 Z"
             fill-rule="evenodd"
             id="path54"
             style="stroke-width:17.1452901;stroke-dasharray:none" /><path
             fill="#000000"
             fill-opacity="0"
             d="m 240.00003,140.38583 c 79.42258,-226.81104 389.17062,0 0,291.61417 -389.1706,-291.61417 -79.42258,-518.4252 0,-291.61417 z"
             fill-rule="evenodd"
             id="path55"
             style="stroke-width:17.1452901;stroke-dasharray:none" /><path
             stroke="#000000"
             stroke-width="12"
             stroke-linejoin="round"
             stroke-linecap="butt"
             d="m 240.00003,140.38583 c 79.42258,-226.81104 389.17062,0 0,291.61417 -389.1706,-291.61417 -79.42258,-518.4252 0,-291.61417 z"
             fill-rule="evenodd"
             id="path56"
             style="stroke-width:17.1452901;stroke-dasharray:none" /></g></g><g
         style="fill:none;stroke:none;stroke-linecap:square;stroke-miterlimit:10;stroke-width:17.1452901;stroke-dasharray:none"
         id="g60"
         transform="matrix(-0.26458333,0,0,-0.26458333,213.5,271.2406)"><g
           clip-path="url(#p.0)"
           id="g59"
           style="stroke-width:17.1452901;stroke-dasharray:none"><path
             fill="#000000"
             fill-opacity="0"
             d="M 0,0 H 480 V 480 H 0 Z"
             fill-rule="evenodd"
             id="path57"
             style="stroke-width:17.1452901;stroke-dasharray:none" /><path
             fill="#000000"
             fill-opacity="0"
             d="m 240.00003,140.38583 c 79.42258,-226.81104 389.17062,0 0,291.61417 -389.1706,-291.61417 -79.42258,-518.4252 0,-291.61417 z"
             fill-rule="evenodd"
             id="path58"
             style="stroke-width:17.1452901;stroke-dasharray:none" /><path
             stroke="#000000"
             stroke-width="12"
             stroke-linejoin="round"
             stroke-linecap="butt"
             d="m 240.00003,140.38583 c 79.42258,-226.81104 389.17062,0 0,291.61417 -389.1706,-291.61417 -79.42258,-518.4252 0,-291.61417 z"
             fill-rule="evenodd"
             id="path59"
             style="stroke-width:17.1452901;stroke-dasharray:none" /></g></g></g><g
       id="g68"
       transform="matrix(0,1.1811024,-1.0285794,0,311.4925,-27.165363)"
       style="stroke-width:4.53635796;stroke-dasharray:none"><g
         style="fill:none;stroke:none;stroke-linecap:square;stroke-miterlimit:10;stroke-width:17.14529016;stroke-dasharray:none"
         id="g64"
         transform="matrix(0.26458333,0,0,0.26458333,86.500001,42.770157)"><g
           clip-path="url(#p.0)"
           id="g63"
           style="stroke-width:17.14529016;stroke-dasharray:none"><path
             fill="#000000"
             fill-opacity="0"
             d="M 0,0 H 480 V 480 H 0 Z"
             fill-rule="evenodd"
             id="path61"
             style="stroke-width:17.14529016;stroke-dasharray:none" /><path
             fill="#000000"
             fill-opacity="0"
             d="m 240.00003,140.38583 c 79.42258,-226.81104 389.17062,0 0,291.61417 -389.1706,-291.61417 -79.42258,-518.4252 0,-291.61417 z"
             fill-rule="evenodd"
             id="path62"
             style="stroke-width:17.14529016;stroke-dasharray:none" /><path
             stroke="#000000"
             stroke-width="12"
             stroke-linejoin="round"
             stroke-linecap="butt"
             d="m 240.00003,140.38583 c 79.42258,-226.81104 389.17062,0 0,291.61417 -389.1706,-291.61417 -79.42258,-518.4252 0,-291.61417 z"
             fill-rule="evenodd"
             id="path63"
             style="stroke-width:17.14529016;stroke-dasharray:none" /></g></g><g
         style="fill:none;stroke:none;stroke-linecap:square;stroke-miterlimit:10;stroke-width:17.14529016;stroke-dasharray:none"
         id="g67"
         transform="matrix(-0.26458333,0,0,-0.26458333,213.5,271.2406)"><g
           clip-path="url(#p.0)"
           id="g66"
           style="stroke-width:17.14529016;stroke-dasharray:none"><path
             fill="#000000"
             fill-opacity="0"
             d="M 0,0 H 480 V 480 H 0 Z"
             fill-rule="evenodd"
             id="path64"
             style="stroke-width:17.14529016;stroke-dasharray:none" /><path
             fill="#000000"
             fill-opacity="0"
             d="m 240.00003,140.38583 c 79.42258,-226.81104 389.17062,0 0,291.61417 -389.1706,-291.61417 -79.42258,-518.4252 0,-291.61417 z"
             fill-rule="evenodd"
             id="path65"
             style="stroke-width:17.14529016;stroke-dasharray:none" /><path
             stroke="#000000"
             stroke-width="12"
             stroke-linejoin="round"
             stroke-linecap="butt"
             d="m 240.00003,140.38583 c 79.42258,-226.81104 389.17062,0 0,291.61417 -389.1706,-291.61417 -79.42258,-518.4252 0,-291.61417 z"
             fill-rule="evenodd"
             id="path66"
             style="stroke-width:17.14529016;stroke-dasharray:none" /></g></g></g><g
       id="g75"
       transform="matrix(-0.83516552,0.83516552,-0.72731547,-0.72731547,389.46727,138.91761)"
       style="stroke-width:4.53635795;stroke-dasharray:none"><g
         style="fill:none;stroke:none;stroke-linecap:square;stroke-miterlimit:10;stroke-width:17.1452901;stroke-dasharray:none"
         id="g71"
         transform="matrix(0.26458333,0,0,0.26458333,86.500001,42.770157)"><g
           clip-path="url(#p.0)"
           id="g70"
           style="stroke-width:17.1452901;stroke-dasharray:none"><path
             fill="#000000"
             fill-opacity="0"
             d="M 0,0 H 480 V 480 H 0 Z"
             fill-rule="evenodd"
             id="path68"
             style="stroke-width:17.1452901;stroke-dasharray:none" /><path
             fill="#000000"
             fill-opacity="0"
             d="m 240.00003,140.38583 c 79.42258,-226.81104 389.17062,0 0,291.61417 -389.1706,-291.61417 -79.42258,-518.4252 0,-291.61417 z"
             fill-rule="evenodd"
             id="path69"
             style="stroke-width:17.1452901;stroke-dasharray:none" /><path
             stroke="#000000"
             stroke-width="12"
             stroke-linejoin="round"
             stroke-linecap="butt"
             d="m 240.00003,140.38583 c 79.42258,-226.81104 389.17062,0 0,291.61417 -389.1706,-291.61417 -79.42258,-518.4252 0,-291.61417 z"
             fill-rule="evenodd"
             id="path70"
             style="stroke-width:17.1452901;stroke-dasharray:none" /></g></g><g
         style="fill:none;stroke:none;stroke-linecap:square;stroke-miterlimit:10;stroke-width:17.1452901;stroke-dasharray:none"
         id="g74"
         transform="matrix(-0.26458333,0,0,-0.26458333,213.5,271.2406)"><g
           clip-path="url(#p.0)"
           id="g73"
           style="stroke-width:17.1452901;stroke-dasharray:none"><path
             fill="#000000"
             fill-opacity="0"
             d="M 0,0 H 480 V 480 H 0 Z"
             fill-rule="evenodd"
             id="path71"
             style="stroke-width:17.1452901;stroke-dasharray:none" /><path
             fill="#000000"
             fill-opacity="0"
             d="m 240.00003,140.38583 c 79.42258,-226.81104 389.17062,0 0,291.61417 -389.1706,-291.61417 -79.42258,-518.4252 0,-291.61417 z"
             fill-rule="evenodd"
             id="path72"
             style="stroke-width:17.1452901;stroke-dasharray:none" /><path
             stroke="#000000"
             stroke-width="12"
             stroke-linejoin="round"
             stroke-linecap="butt"
             d="m 240.00003,140.38583 c 79.42258,-226.81104 389.17062,0 0,291.61417 -389.1706,-291.61417 -79.42258,-518.4252 0,-291.61417 z"
             fill-rule="evenodd"
             id="path73"
             style="stroke-width:17.1452901;stroke-dasharray:none" /></g></g></g></g></svg>
